<svg width="298" height="302" viewBox="0 0 298 302" fill="none" xmlns="http://www.w3.org/2000/svg">
<path d="M143.955 0.121846C154.543 -0.470646 171.741 1.16225 182.039 3.61812C220.675 12.8343 253.269 35.8135 274.463 69.1419C295.504 102.745 302.394 143.307 293.63 181.975C284.92 220.313 261.404 253.657 228.212 274.73C193.288 296.867 152.927 302.078 112.941 293.095C98.4146 289.634 86.9066 284.741 73.7275 277.604C58.189 283.487 42.6088 289.259 26.988 294.923C22.7139 296.461 8.00233 302.608 4.30702 301.555C2.69711 301.099 1.34386 300.003 0.562234 298.525C-1.4111 294.838 5.86428 275.67 7.51662 270.417C12.0363 255.626 16.7042 240.884 21.5198 226.189C8.7122 204.953 1.37955 180.872 0.179718 156.104C-1.75013 116.773 11.9239 78.2686 38.2291 48.9636C66.1537 18.1738 102.717 2.11532 143.955 0.121846Z" fill="#FE4C02"/>
<path d="M144.397 58.8881C194.179 56.5751 236.414 95.0559 238.733 144.84C241.048 194.624 202.572 236.862 152.789 239.185C102.998 241.507 60.7534 203.024 58.4354 153.234C56.1177 103.442 94.6047 61.2012 144.397 58.8881Z" fill="#FFFFFE"/>
</svg>
