<svg width="184" height="254" viewBox="0 0 184 254" fill="none" xmlns="http://www.w3.org/2000/svg">
  <path d="M8.04883 24.5525C13.6308 24.2858 20.7981 24.4915 26.4868 24.4793L168.651 24.4545C173.158 24.4588 176.687 24.6445 180.108 28.0185C184.555 32.4068 183.78 38.6375 183.78 44.4238L183.69 114.655C174.141 116.784 166.04 122.709 164.054 132.628C161.197 146.898 169.751 157.824 183.56 160.609L183.5 213.911V229.796C183.5 233.249 183.585 237.426 183.26 240.809C181.523 255.996 164.465 253.326 153.515 253.281L26.9978 253.256C20.6681 253.256 11.4341 254.201 6.16434 250.644C3.25734 248.711 1.23733 245.704 0.54933 242.281C-0.27367 237.981 0.0643335 223.186 0.0918335 218.239L0.201582 175.413L0.223586 51.0725C0.220336 45.6908 0.226587 40.3038 0.252837 34.9225C0.280087 29.3738 2.32933 25.676 8.04883 24.5525Z" fill="#061329"/>
  <path d="M82.1264 95.5846C85.0999 95.4158 100.636 94.8251 102.141 96.1616C103.712 99.2706 101.868 123.406 103.256 124.078C106.57 125.683 128.768 123.198 131.102 125.465C131.733 127.628 131.807 144.367 130.838 146.226C128.481 147.367 107.868 146.294 102.97 147.035C102.146 153.222 103.169 161.128 102.785 167.445C102.645 169.741 103.017 172.23 102.47 174.51C102.267 175.357 101.905 175.399 101.236 175.736C97.1811 175.761 84.2034 176.096 80.8774 175.358C80.3884 172.553 80.5269 167.732 80.5311 164.774C80.5819 158.822 80.5709 152.87 80.4981 146.918C75.2204 146.372 55.8411 147.363 52.5126 146.258C51.0211 144.965 51.3291 126.905 52.2496 125.181C54.1874 124.049 76.2632 124.695 80.4589 124.418C80.8704 115.333 80.0832 105.833 80.7994 96.7576C80.8519 96.0923 81.5759 95.8793 82.1264 95.5846Z" fill="white"/>
  <path d="M156.892 0.0965255C169.398 -1.25247 167.242 11.8458 167.053 20.1618C152.176 20.3028 137.297 20.336 122.419 20.2613L34.7018 20.2818C30.8706 20.2538 26.9713 20.4088 23.1641 20.3238C31.6868 18.0223 43.6723 16.263 52.4096 14.9668L87.0241 9.94478L131.814 3.65253C139.827 2.50878 148.974 0.898525 156.892 0.0965255Z" fill="#061329"/>
</svg>
